simulation
nRows=74
nColumns=15
endheader
time  TH_x TH_y TH_z SC_y  SC_z  SC_x  AC_y  AC_z  AC_x  GH_y  GH_z  GH_yy  EL_x  PS_y
0.500000  0.000000  0.000000  0.000000  -9.338807  -0.975317  24.888978  63.785078  -7.020456  -13.023106  30.792202  36.183502  -20.869234  21.393659  97.802212
0.500561  0.000000  0.000000  0.000000  -9.338807  -0.975317  29.174692  63.485521  -10.860761  -14.949369  30.792202  36.183502  -20.869234  21.393659  97.802212
0.501121  0.000000  0.000000  0.000000  -9.338807  -0.975317  33.460407  63.048208  -14.688770  -16.925805  30.792202  36.183502  -20.869234  21.393659  97.802212
0.501682  0.000000  0.000000  0.000000  -9.338807  -0.975317  37.746121  62.463273  -18.499462  -18.972633  30.792202  36.183502  -20.869234  21.393659  97.802212
0.502242  0.000000  0.000000  0.000000  -9.338807  -0.975317  42.031835  61.717139  -22.287153  -21.112461  30.792202  36.183502  -20.869234  21.393659  97.802212
0.502803  0.000000  0.000000  0.000000  -9.338807  -0.975317  46.317549  60.791872  -26.045243  -23.371148  30.792202  36.183502  -20.869234  21.393659  97.802212
0.503363  0.000000  0.000000  0.000000  -9.338807  -0.975317  50.603264  59.664315  -29.765886  -25.778844  30.792202  36.183502  -20.869234  21.393659  97.802212
0.503924  0.000000  0.000000  0.000000  -9.338807  -0.975317  54.888978  58.304950  -33.439582  -28.371263  30.792202  36.183502  -20.869234  21.393659  97.802212
0.504484  0.000000  0.000000  0.000000  -17.683576  1.654049  -7.461254  63.129587  19.878320  -1.499789  5.497894  37.866583  -23.430511  27.203971  102.509987
0.505045  0.000000  0.000000  0.000000  -17.683576  1.654049  -3.175540  63.751086  16.044467  -3.513866  5.497894  37.866583  -23.430511  27.203971  102.509987
0.505605  0.000000  0.000000  0.000000  -17.683576  1.654049  1.110175  64.224068  12.192522  -5.451620  5.497894  37.866583  -23.430511  27.203971  102.509987
0.506166  0.000000  0.000000  0.000000  -17.683576  1.654049  5.395889  64.559518  8.327438  -7.333716  5.497894  37.866583  -23.430511  27.203971  102.509987
0.506726  0.000000  0.000000  0.000000  -17.683576  1.654049  9.681603  64.765037  4.453666  -9.178916  5.497894  37.866583  -23.430511  27.203971  102.509987
0.507287  0.000000  0.000000  0.000000  -17.683576  1.654049  13.967317  64.845190  0.575347  -11.004753  5.497894  37.866583  -23.430511  27.203971  102.509987
0.507848  0.000000  0.000000  0.000000  -17.683576  1.654049  18.253032  64.801750  -3.303557  -12.828096  5.497894  37.866583  -23.430511  27.203971  102.509987
0.508408  0.000000  0.000000  0.000000  -17.683576  1.654049  22.538746  64.633771  -7.179098  -14.665767  5.497894  37.866583  -23.430511  27.203971  102.509987
0.508969  0.000000  0.000000  0.000000  -17.683576  1.654049  26.824460  64.337514  -11.047206  -16.535029  5.497894  37.866583  -23.430511  27.203971  102.509987
0.509529  0.000000  0.000000  0.000000  -17.683576  1.654049  31.110175  63.906312  -14.903539  -18.454217  5.497894  37.866583  -23.430511  27.203971  102.509987
0.510090  0.000000  0.000000  0.000000  -17.683576  1.654049  35.395889  63.330233  -18.743313  -20.443356  5.497894  37.866583  -23.430511  27.203971  102.509987
0.510650  0.000000  0.000000  0.000000  -17.683576  1.654049  39.681603  62.595599  -22.561098  -22.524917  5.497894  37.866583  -23.430511  27.203971  102.509987
0.511211  0.000000  0.000000  0.000000  -17.683576  1.654049  43.967317  61.684313  -26.350569  -24.724710  5.497894  37.866583  -23.430511  27.203971  102.509987
0.511771  0.000000  0.000000  0.000000  -17.683576  1.654049  48.253032  60.572938  -30.104176  -27.072972  5.497894  37.866583  -23.430511  27.203971  102.509987
0.512332  0.000000  0.000000  0.000000  -17.683576  1.654049  52.538746  59.231483  -33.812740  -29.605720  5.497894  37.866583  -23.430511  27.203971  102.509987
0.512892  0.000000  0.000000  0.000000  -22.023692  7.989351  -7.461254  62.403881  24.693682  10.414207  3.839513  52.571051  -30.882533  29.104649  85.084487
0.513453  0.000000  0.000000  0.000000  -22.023692  7.989351  -3.175540  63.226808  20.880902  8.290857  3.839513  52.571051  -30.882533  29.104649  85.084487
0.514013  0.000000  0.000000  0.000000  -22.023692  7.989351  1.110175  63.882895  17.043223  6.273102  3.839513  52.571051  -30.882533  29.104649  85.084487
0.514574  0.000000  0.000000  0.000000  -22.023692  7.989351  5.395889  64.388115  13.186436  4.336845  3.839513  52.571051  -30.882533  29.104649  85.084487
0.515135  0.000000  0.000000  0.000000  -22.023692  7.989351  9.681603  64.754367  9.315571  2.460901  3.839513  52.571051  -30.882533  29.104649  85.084487
0.515695  0.000000  0.000000  0.000000  -22.023692  7.989351  13.967317  64.990039  5.435109  0.626191  3.839513  52.571051  -30.882533  29.104649  85.084487
0.516256  0.000000  0.000000  0.000000  -22.023692  7.989351  18.253032  65.100436  1.549183  -1.184979  3.839513  52.571051  -30.882533  29.104649  85.084487
0.516816  0.000000  0.000000  0.000000  -22.023692  7.989351  22.538746  65.088000  -2.338293  -2.989509  3.839513  52.571051  -30.882533  29.104649  85.084487
0.517377  0.000000  0.000000  0.000000  -22.023692  7.989351  26.824460  64.952460  -6.223432  -4.804074  3.839513  52.571051  -30.882533  29.104649  85.084487
0.517937  0.000000  0.000000  0.000000  -22.023692  7.989351  31.110175  64.690803  -10.102288  -6.645689  3.839513  52.571051  -30.882533  29.104649  85.084487
0.518498  0.000000  0.000000  0.000000  -22.023692  7.989351  35.395889  64.297126  -13.970673  -8.532274  3.839513  52.571051  -30.882533  29.104649  85.084487
0.519058  0.000000  0.000000  0.000000  -22.023692  7.989351  39.681603  63.762367  -17.824008  -10.483278  3.839513  52.571051  -30.882533  29.104649  85.084487
0.519619  0.000000  0.000000  0.000000  -22.023692  7.989351  43.967317  63.073853  -21.657131  -12.520406  3.839513  52.571051  -30.882533  29.104649  85.084487
0.520179  0.000000  0.000000  0.000000  -22.023692  7.989351  48.253032  62.214671  -25.464059  -14.668476  3.839513  52.571051  -30.882533  29.104649  85.084487
0.520740  0.000000  0.000000  0.000000  -22.023692  7.989351  52.538746  61.162808  -29.237686  -16.956465  3.839513  52.571051  -30.882533  29.104649  85.084487
0.521300  0.000000  0.000000  0.000000  -21.175260  5.374165  -7.461254  62.972485  29.610018  2.807651  31.856429  54.042275  -33.993594  29.255251  90.670744
0.521861  0.000000  0.000000  0.000000  -21.175260  5.374165  -3.175540  63.977483  25.774909  0.646489  31.856429  54.042275  -33.993594  29.255251  90.670744
0.522422  0.000000  0.000000  0.000000  -21.175260  5.374165  1.110175  64.796639  21.909895  -1.378670  31.856429  54.042275  -33.993594  29.255251  90.670744
0.522982  0.000000  0.000000  0.000000  -21.175260  5.374165  5.395889  65.451891  18.021416  -3.296387  31.856429  54.042275  -33.993594  29.255251  90.670744
0.523543  0.000000  0.000000  0.000000  -21.175260  5.374165  9.681603  65.959997  14.114872  -5.130950  31.856429  54.042275  -33.993594  29.255251  90.670744
0.524103  0.000000  0.000000  0.000000  -21.175260  5.374165  13.967317  66.333464  10.194908  -6.903486  31.856429  54.042275  -33.993594  29.255251  90.670744
0.524664  0.000000  0.000000  0.000000  -21.175260  5.374165  18.253032  66.581179  6.265622  -8.632805  31.856429  54.042275  -33.993594  29.255251  90.670744
0.525224  0.000000  0.000000  0.000000  -21.175260  5.374165  22.538746  66.708930  2.330759  -10.336232  31.856429  54.042275  -33.993594  29.255251  90.670744
0.525785  0.000000  0.000000  0.000000  -21.175260  5.374165  26.824460  66.719650  -1.606148  -12.030144  31.856429  54.042275  -33.993594  29.255251  90.670744
0.526345  0.000000  0.000000  0.000000  -21.175260  5.374165  31.110175  66.613579  -5.541648  -13.730608  31.856429  54.042275  -33.993594  29.255251  90.670744
0.526906  0.000000  0.000000  0.000000  -21.175260  5.374165  35.395889  66.388288  -9.472232  -15.453904  31.856429  54.042275  -33.993594  29.255251  90.670744
0.527466  0.000000  0.000000  0.000000  -21.175260  5.374165  39.681603  66.038542  -13.394208  -17.217119  31.856429  54.042275  -33.993594  29.255251  90.670744
0.528027  0.000000  0.000000  0.000000  -21.175260  5.374165  43.967317  65.556043  -17.303552  -19.038755  31.856429  54.042275  -33.993594  29.255251  90.670744
0.528587  0.000000  0.000000  0.000000  -21.175260  5.374165  48.253032  64.929000  -21.195735  -20.939448  31.856429  54.042275  -33.993594  29.255251  90.670744
0.529148  0.000000  0.000000  0.000000  -21.175260  5.374165  52.538746  64.141496  -25.065517  -22.942827  31.856429  54.042275  -33.993594  29.255251  90.670744
0.529709  0.000000  0.000000  0.000000  -12.846976  -8.312119  -9.693551  67.080301  25.016051  -8.504652  7.031942  53.094037  -52.598937  26.474645  88.917018
0.530269  0.000000  0.000000  0.000000  -12.846976  -8.312119  -5.407836  67.780107  21.058221  -10.291746  7.031942  53.094037  -52.598937  26.474645  88.917018
0.530830  0.000000  0.000000  0.000000  -12.846976  -8.312119  -1.122122  68.334026  17.082680  -11.985928  7.031942  53.094037  -52.598937  26.474645  88.917018
0.531390  0.000000  0.000000  0.000000  -12.846976  -8.312119  3.163592  68.756822  13.093650  -13.609112  7.031942  53.094037  -52.598937  26.474645  88.917018
0.531951  0.000000  0.000000  0.000000  -12.846976  -8.312119  7.449306  69.059386  9.094805  -15.180446  7.031942  53.094037  -52.598937  26.474645  88.917018
0.532511  0.000000  0.000000  0.000000  -12.846976  -8.312119  11.735021  69.249219  5.089382  -16.716972  7.031942  53.094037  -52.598937  26.474645  88.917018
0.533072  0.000000  0.000000  0.000000  -12.846976  -8.312119  16.020735  69.330936  1.080363  -18.234449  7.031942  53.094037  -52.598937  26.474645  88.917018
0.533632  0.000000  0.000000  0.000000  -12.846976  -8.312119  20.306449  69.306499  -2.929410  -19.747919  7.031942  53.094037  -52.598937  26.474645  88.917018
0.534193  0.000000  0.000000  0.000000  -12.846976  -8.312119  24.592164  69.175324  -6.937128  -21.272284  7.031942  53.094037  -52.598937  26.474645  88.917018
0.534753  0.000000  0.000000  0.000000  -12.846976  -8.312119  28.877878  68.934246  -10.939901  -22.822839  7.031942  53.094037  -52.598937  26.474645  88.917018
0.535314  0.000000  0.000000  0.000000  -12.846976  -8.312119  33.163592  68.577354  -14.934642  -24.415866  7.031942  53.094037  -52.598937  26.474645  88.917018
0.535874  0.000000  0.000000  0.000000  -12.846976  -8.312119  37.449306  68.095658  -18.917935  -26.069269  7.031942  53.094037  -52.598937  26.474645  88.917018
0.536435  0.000000  0.000000  0.000000  -12.846976  -8.312119  41.735021  67.476580  -22.885882  -27.803347  7.031942  53.094037  -52.598937  26.474645  88.917018
0.536996  0.000000  0.000000  0.000000  -12.846976  -8.312119  46.020735  66.703201  -26.833894  -29.641749  7.031942  53.094037  -52.598937  26.474645  88.917018
0.537556  0.000000  0.000000  0.000000  -12.846976  -8.312119  50.306449  65.753208  -30.756433  -31.612694  7.031942  53.094037  -52.598937  26.474645  88.917018
0.538117  0.000000  0.000000  0.000000  -13.180553  -7.708149  -9.693551  64.577988  16.415202  -5.532226  14.553496  55.153623  -21.834017  20.784791  97.451374
0.538677  0.000000  0.000000  0.000000  -13.180553  -7.708149  -5.407836  65.049073  12.536581  -7.415525  14.553496  55.153623  -21.834017  20.784791  97.451374
0.539238  0.000000  0.000000  0.000000  -13.180553  -7.708149  -1.122122  65.385139  8.645234  -9.242801  14.553496  55.153623  -21.834017  20.784791  97.451374
0.539798  0.000000  0.000000  0.000000  -13.180553  -7.708149  3.163592  65.593955  4.745404  -11.032632  14.553496  55.153623  -21.834017  20.784791  97.451374
0.540359  0.000000  0.000000  0.000000  -13.180553  -7.708149  7.449306  65.680248  0.841019  -12.802314  14.553496  55.153623  -21.834017  20.784791  97.451374
0.540919  0.000000  0.000000  0.000000  -13.180553  -7.708149  11.735021  65.645962  -3.064167  -14.568452  14.553496  55.153623  -21.834017  20.784791  97.451374
